<svg xmlns="http://www.w3.org/2000/svg" width="1200" height="340" viewBox="0 0 1200 340" role="img" aria-label="Artem Nizgirev — backend and fullstack developer"><title>Artem Nizgirev — backend and fullstack developer</title><style>.pulse{transform-box:fill-box;transform-origin:center;animation:pulse 2.8s ease-out infinite}.p1{animation-delay:.9s}.p2{animation-delay:1.8s}@keyframes pulse{0%{transform:scale(1);opacity:.9}100%{transform:scale(3.2);opacity:0}}.sector{animation:breathe 5s ease-in-out infinite}.s1{animation-delay:1.6s}.s2{animation-delay:3.2s}@keyframes breathe{50%{opacity:.08}}.orbit{animation:orbit 18s linear infinite}@keyframes orbit{to{stroke-dashoffset:-280}}@media (prefers-reduced-motion: reduce){*{animation:none!important}}</style><defs><linearGradient id="card-light" x1="0" y1="0" x2="0" y2="1"><stop offset="0" stop-color="#ffffff"/><stop offset="1" stop-color="#f6f8fa"/></linearGradient></defs><rect x="0.5" y="0.5" width="1199" height="339" rx="20" fill="url(#card-light)" stroke="#d1d9e0"/><defs><clipPath id="clip"><rect x="1" y="1" width="1198" height="338" rx="19"/></clipPath><linearGradient id="fade" x1="540" y1="0" x2="860" y2="0" gradientUnits="userSpaceOnUse"><stop offset="0" stop-color="#fff" stop-opacity="0"/><stop offset="1" stop-color="#fff"/></linearGradient><mask id="mask"><rect width="1200" height="340" fill="url(#fade)"/></mask><linearGradient id="rule" x1="0" y1="0" x2="1" y2="0"><stop offset="0" stop-color="#16a34a"/><stop offset="1" stop-color="#8b5cf6"/></linearGradient></defs><g clip-path="url(#clip)"><g mask="url(#mask)"><g fill="#eef1f4"><rect x="560" y="38" width="26" height="14" rx="3"/><rect x="562" y="71" width="16" height="13" rx="3"/><rect x="562" y="98" width="19" height="18" rx="3"/><rect x="566" y="184" width="20" height="15" rx="3"/><rect x="564" y="292" width="25" height="13" rx="3"/><rect x="595" y="10" width="19" height="18" rx="3"/><rect x="595" y="44" width="20" height="17" rx="3"/><rect x="600" y="67" width="20" height="15" rx="3"/><rect x="598" y="94" width="25" height="14" rx="3"/><rect x="596" y="153" width="24" height="18" rx="3"/><rect x="596" y="179" width="15" height="13" rx="3"/><rect x="599" y="207" width="16" height="11" rx="3"/><rect x="594" y="238" width="20" height="18" rx="3"/><rect x="594" y="290" width="22" height="14" rx="3"/><rect x="599" y="323" width="17" height="13" rx="3"/><rect x="631" y="100" width="22" height="11" rx="3"/><rect x="628" y="237" width="14" height="14" rx="3"/><rect x="630" y="265" width="20" height="11" rx="3"/><rect x="664" y="13" width="17" height="12" rx="3"/><rect x="663" y="69" width="16" height="11" rx="3"/><rect x="665" y="94" width="18" height="18" rx="3"/><rect x="667" y="122" width="20" height="11" rx="3"/><rect x="665" y="180" width="19" height="11" rx="3"/><rect x="665" y="290" width="20" height="16" rx="3"/><rect x="697" y="15" width="23" height="15" rx="3"/><rect x="698" y="66" width="25" height="18" rx="3"/><rect x="701" y="99" width="24" height="12" rx="3"/><rect x="696" y="182" width="23" height="10" rx="3"/><rect x="699" y="210" width="15" height="16" rx="3"/><rect x="696" y="238" width="16" height="16" rx="3"/><rect x="701" y="262" width="25" height="16" rx="3"/><rect x="697" y="293" width="14" height="12" rx="3"/><rect x="700" y="319" width="20" height="14" rx="3"/><rect x="733" y="12" width="25" height="18" rx="3"/><rect x="733" y="42" width="26" height="10" rx="3"/><rect x="735" y="68" width="22" height="10" rx="3"/><rect x="730" y="128" width="22" height="13" rx="3"/><rect x="731" y="150" width="15" height="16" rx="3"/><rect x="731" y="179" width="16" height="10" rx="3"/><rect x="736" y="208" width="19" height="14" rx="3"/><rect x="733" y="293" width="18" height="16" rx="3"/><rect x="733" y="322" width="20" height="11" rx="3"/><rect x="764" y="11" width="14" height="15" rx="3"/><rect x="769" y="67" width="17" height="15" rx="3"/><rect x="768" y="98" width="15" height="12" rx="3"/><rect x="770" y="125" width="20" height="15" rx="3"/><rect x="769" y="152" width="15" height="16" rx="3"/><rect x="766" y="238" width="21" height="14" rx="3"/><rect x="766" y="267" width="19" height="11" rx="3"/><rect x="764" y="319" width="26" height="11" rx="3"/><rect x="801" y="12" width="23" height="17" rx="3"/><rect x="800" y="44" width="15" height="18" rx="3"/><rect x="798" y="97" width="19" height="13" rx="3"/><rect x="799" y="127" width="25" height="17" rx="3"/><rect x="799" y="211" width="21" height="17" rx="3"/><rect x="803" y="240" width="22" height="14" rx="3"/><rect x="804" y="322" width="18" height="10" rx="3"/><rect x="837" y="38" width="19" height="14" rx="3"/><rect x="833" y="178" width="26" height="14" rx="3"/><rect x="832" y="237" width="15" height="12" rx="3"/><rect x="834" y="264" width="20" height="15" rx="3"/><rect x="867" y="10" width="14" height="18" rx="3"/><rect x="872" y="151" width="17" height="17" rx="3"/><rect x="866" y="211" width="21" height="17" rx="3"/><rect x="870" y="239" width="24" height="10" rx="3"/><rect x="868" y="296" width="19" height="17" rx="3"/><rect x="872" y="320" width="18" height="17" rx="3"/><rect x="901" y="40" width="17" height="15" rx="3"/><rect x="905" y="68" width="25" height="12" rx="3"/><rect x="904" y="128" width="26" height="11" rx="3"/><rect x="906" y="156" width="14" height="13" rx="3"/><rect x="903" y="182" width="18" height="18" rx="3"/><rect x="906" y="209" width="19" height="15" rx="3"/><rect x="904" y="238" width="19" height="11" rx="3"/><rect x="905" y="321" width="25" height="18" rx="3"/><rect x="938" y="11" width="18" height="18" rx="3"/><rect x="940" y="66" width="19" height="17" rx="3"/><rect x="935" y="128" width="23" height="11" rx="3"/><rect x="936" y="155" width="21" height="15" rx="3"/><rect x="935" y="178" width="20" height="17" rx="3"/><rect x="934" y="210" width="21" height="11" rx="3"/><rect x="939" y="324" width="17" height="18" rx="3"/><rect x="974" y="69" width="21" height="17" rx="3"/><rect x="974" y="209" width="16" height="17" rx="3"/><rect x="968" y="236" width="20" height="18" rx="3"/><rect x="973" y="262" width="19" height="18" rx="3"/><rect x="1008" y="14" width="21" height="16" rx="3"/><rect x="1007" y="42" width="15" height="10" rx="3"/><rect x="1006" y="67" width="25" height="13" rx="3"/><rect x="1007" y="98" width="18" height="15" rx="3"/><rect x="1004" y="123" width="17" height="11" rx="3"/><rect x="1008" y="151" width="17" height="11" rx="3"/><rect x="1004" y="184" width="23" height="14" rx="3"/><rect x="1005" y="207" width="25" height="11" rx="3"/><rect x="1003" y="292" width="21" height="11" rx="3"/><rect x="1039" y="38" width="25" height="10" rx="3"/><rect x="1036" y="71" width="16" height="13" rx="3"/><rect x="1037" y="150" width="26" height="12" rx="3"/><rect x="1036" y="180" width="19" height="13" rx="3"/><rect x="1038" y="208" width="24" height="17" rx="3"/><rect x="1040" y="237" width="25" height="14" rx="3"/><rect x="1039" y="267" width="14" height="13" rx="3"/><rect x="1039" y="296" width="19" height="14" rx="3"/><rect x="1076" y="44" width="25" height="17" rx="3"/><rect x="1076" y="70" width="26" height="14" rx="3"/><rect x="1070" y="94" width="17" height="15" rx="3"/><rect x="1072" y="122" width="18" height="16" rx="3"/><rect x="1072" y="211" width="14" height="12" rx="3"/><rect x="1073" y="238" width="17" height="11" rx="3"/><rect x="1074" y="323" width="25" height="16" rx="3"/><rect x="1109" y="16" width="17" height="14" rx="3"/><rect x="1109" y="43" width="19" height="18" rx="3"/><rect x="1106" y="122" width="24" height="12" rx="3"/><rect x="1108" y="155" width="18" height="17" rx="3"/><rect x="1109" y="234" width="14" height="18" rx="3"/><rect x="1107" y="292" width="23" height="10" rx="3"/><rect x="1105" y="318" width="23" height="16" rx="3"/><rect x="1142" y="13" width="20" height="11" rx="3"/><rect x="1140" y="72" width="18" height="17" rx="3"/><rect x="1144" y="99" width="19" height="14" rx="3"/><rect x="1142" y="153" width="20" height="13" rx="3"/><rect x="1143" y="184" width="19" height="13" rx="3"/><rect x="1142" y="264" width="22" height="17" rx="3"/><rect x="1178" y="16" width="25" height="14" rx="3"/><rect x="1175" y="97" width="20" height="18" rx="3"/><rect x="1174" y="124" width="15" height="16" rx="3"/><rect x="1172" y="153" width="17" height="18" rx="3"/><rect x="1173" y="182" width="15" height="16" rx="3"/><rect x="1178" y="210" width="22" height="12" rx="3"/><rect x="1174" y="266" width="17" height="13" rx="3"/><rect x="1175" y="294" width="23" height="11" rx="3"/><rect x="1173" y="324" width="23" height="12" rx="3"/></g><path d="M540 330 C 740 262, 900 214, 1215 118" stroke="#e6eaef" stroke-width="16" fill="none" stroke-linecap="round"/><path d="M915 -10 C 896 100, 874 220, 846 350" stroke="#e6eaef" stroke-width="13" fill="none" stroke-linecap="round"/><path d="M690 -10 L 770 350" stroke="#e6eaef" stroke-width="6" fill="none" stroke-linecap="round"/><path d="M975 -10 C 1000 120, 1040 240, 1066 350" stroke="#e6eaef" stroke-width="6" fill="none" stroke-linecap="round"/><path d="M600 125 L 1215 262" stroke="#e6eaef" stroke-width="6" fill="none" stroke-linecap="round"/><path d="M760 55 L 1215 32" stroke="#e6eaef" stroke-width="5" fill="none" stroke-linecap="round"/><path class="sector s0" d="M1010 180 L936.6 189.0 A74 74 0 0 1 959.5 125.9 Z" fill="#16a34a" opacity="0.3"/><path class="sector s1" d="M868 296 L813.9 245.5 A74 74 0 0 1 877.0 222.6 Z" fill="#16a34a" opacity="0.3"/><path class="sector s2" d="M790 150 L793.9 76.1 A74 74 0 0 1 852.1 109.7 Z" fill="#16a34a" opacity="0.3"/><path class="sector s0" d="M735 262 L684.5 316.1 A74 74 0 0 1 661.6 253.0 Z" fill="#8b5cf6" opacity="0.18"/><path class="sector s1" d="M1120 140 L1193.4 131.0 A74 74 0 0 1 1170.5 194.1 Z" fill="#8b5cf6" opacity="0.18"/><path class="sector s2" d="M1150 290 L1159.0 363.4 A74 74 0 0 1 1095.9 340.5 Z" fill="#8b5cf6" opacity="0.18"/><path class="sector s0" d="M650 110 L690.3 47.9 A74 74 0 0 1 723.9 106.1 Z" fill="#8b5cf6" opacity="0.18"/><circle cx="880" cy="214" r="140" fill="#16a34a" fill-opacity="0.05"/><circle class="orbit" cx="880" cy="214" r="140" fill="none" stroke="#15803d" stroke-width="2" stroke-dasharray="6 8" opacity="0.8"/><path d="M880 214 L995 294" stroke="#15803d" stroke-width="1.5" stroke-dasharray="2 5" stroke-linecap="round"/><rect x="836" y="61" width="88" height="26" rx="13" fill="#ffffff" stroke="#15803d" stroke-opacity="0.5"/><text x="880" y="79" font-family="ui-monospace, SFMono-Regular, 'SF Mono', Menlo, Consolas, 'Liberation Mono', monospace" font-size="14" font-weight="600" fill="#15803d" text-anchor="middle">r = 5 km</text><circle cx="880" cy="214" r="9" fill="none" stroke="#15803d" stroke-width="2"/><circle cx="880" cy="214" r="3.5" fill="#15803d"/><circle class="pulse p0" cx="1010" cy="180" r="8" fill="none" stroke="#15803d" stroke-width="2"/><circle cx="1010" cy="180" r="7" fill="#15803d" stroke="#ffffff" stroke-width="3"/><circle class="pulse p1" cx="868" cy="296" r="8" fill="none" stroke="#15803d" stroke-width="2"/><circle cx="868" cy="296" r="7" fill="#15803d" stroke="#ffffff" stroke-width="3"/><circle class="pulse p2" cx="790" cy="150" r="8" fill="none" stroke="#15803d" stroke-width="2"/><circle cx="790" cy="150" r="7" fill="#15803d" stroke="#ffffff" stroke-width="3"/><circle cx="735" cy="262" r="6" fill="#7c3aed" stroke="#ffffff" stroke-width="3" opacity="0.85"/><circle cx="1120" cy="140" r="6" fill="#7c3aed" stroke="#ffffff" stroke-width="3" opacity="0.85"/><circle cx="1150" cy="290" r="6" fill="#7c3aed" stroke="#ffffff" stroke-width="3" opacity="0.85"/><circle cx="650" cy="110" r="6" fill="#7c3aed" stroke="#ffffff" stroke-width="3" opacity="0.85"/></g></g><text x="64" y="100" font-family="ui-monospace, SFMono-Regular, 'SF Mono', Menlo, Consolas, 'Liberation Mono', monospace" font-size="15" font-weight="600" fill="#15803d" text-anchor="start" letter-spacing="3">BACKEND · FULLSTACK</text><text x="62" y="168" font-family="-apple-system, BlinkMacSystemFont, 'Segoe UI', 'Noto Sans', Helvetica, Arial, sans-serif" font-size="60" font-weight="700" fill="#1f2328" text-anchor="start" letter-spacing="-1">Artem Nizgirev</text><rect x="64" y="190" width="72" height="4" rx="2" fill="url(#rule)"/><text x="64" y="236" font-family="-apple-system, BlinkMacSystemFont, 'Segoe UI', 'Noto Sans', Helvetica, Arial, sans-serif" font-size="24" font-weight="400" fill="#59636e" text-anchor="start">I build web products end to end:</text><text x="64" y="268" font-family="-apple-system, BlinkMacSystemFont, 'Segoe UI', 'Noto Sans', Helvetica, Arial, sans-serif" font-size="24" font-weight="400" fill="#59636e" text-anchor="start">from PostGIS queries to the UI on top.</text><text x="64" y="300" font-family="ui-monospace, SFMono-Regular, 'SF Mono', Menlo, Consolas, 'Liberation Mono', monospace" font-size="15" font-weight="400" fill="#8c959f" text-anchor="start">FastAPI · PostgreSQL · Vue 3 · TypeScript</text></svg>
